<?xml version="1.0" encoding="UTF-8" standalone="no"?>
<!-- Created with Inkscape (http://www.inkscape.org/) -->

<svg
   width="82.588608mm"
   height="28.913534mm"
   viewBox="0 0 82.588608 28.913535"
   version="1.1"
   id="svg5"
   inkscape:version="1.2.2 (732a01da63, 2022-12-09, custom)"
   sodipodi:docname="Legio.svg"
   inkscape:export-filename="Legio.png"
   inkscape:export-xdpi="96"
   inkscape:export-ydpi="96"
   xmlns:inkscape="http://www.inkscape.org/namespaces/inkscape"
   xmlns:sodipodi="http://sodipodi.sourceforge.net/DTD/sodipodi-0.dtd"
   xmlns:xlink="http://www.w3.org/1999/xlink"
   xmlns="http://www.w3.org/2000/svg"
   xmlns:svg="http://www.w3.org/2000/svg">
  <sodipodi:namedview
     id="namedview7"
     pagecolor="#505050"
     bordercolor="#eeeeee"
     borderopacity="1"
     inkscape:showpageshadow="0"
     inkscape:pageopacity="0"
     inkscape:pagecheckerboard="0"
     inkscape:deskcolor="#505050"
     inkscape:document-units="mm"
     showgrid="false"
     inkscape:zoom="2.2047486"
     inkscape:cx="166.45889"
     inkscape:cy="65.993918"
     inkscape:window-width="1920"
     inkscape:window-height="1016"
     inkscape:window-x="0"
     inkscape:window-y="1107"
     inkscape:window-maximized="1"
     inkscape:current-layer="layer1" />
  <defs
     id="defs2">
    <linearGradient
       inkscape:collect="always"
       id="linearGradient11464">
      <stop
         style="stop-color:#ffffff;stop-opacity:1;"
         offset="0"
         id="stop11460" />
      <stop
         style="stop-color:#4f4f4f;stop-opacity:1;"
         offset="1"
         id="stop11462" />
    </linearGradient>
    <linearGradient
       inkscape:collect="always"
       id="linearGradient4549">
      <stop
         style="stop-color:#ffffff;stop-opacity:1;"
         offset="0"
         id="stop4545" />
      <stop
         style="stop-color:#4f4f4f;stop-opacity:1;"
         offset="1"
         id="stop4547" />
    </linearGradient>
    <rect
       x="135.56958"
       y="125.09797"
       width="540.62677"
       height="149.83617"
       id="rect1153" />
    <linearGradient
       inkscape:collect="always"
       xlink:href="#linearGradient4549"
       id="linearGradient4551"
       x1="65.392616"
       y1="45.323009"
       x2="83.563683"
       y2="45.323009"
       gradientUnits="userSpaceOnUse" />
    <linearGradient
       inkscape:collect="always"
       xlink:href="#linearGradient11464"
       id="linearGradient4553"
       x1="64.469612"
       y1="52.101341"
       x2="74.36441"
       y2="52.101341"
       gradientUnits="userSpaceOnUse" />
  </defs>
  <g
     inkscape:label="Layer 1"
     inkscape:groupmode="layer"
     id="layer1"
     transform="translate(-54.623854,-25.972422)">
    <g
       aria-label="Legio"
       transform="matrix(0.26458333,0,0,0.26458333,4.8218216,-3.5846172)"
       id="text1151"
       style="font-size:85.3333px;line-height:1.25;font-family:'Roman SD';-inkscape-font-specification:'Roman SD';text-align:center;white-space:pre;shape-inside:url(#rect1153);display:inline;fill:none;stroke:#ffffff;stroke-width:0.377953;stroke-linecap:round">
      <path
         d="m 339.95588,208.19579 q -3.35467,4.624 -4.26134,5.984 -1.99466,3.35467 -2.62933,6.34667 -0.63467,-0.90667 -3.264,-3.35467 -1.36,-0.99733 -3.62667,-1.36 -3.89867,-0.63467 -17.04534,-0.63467 -0.816,0 -2.81067,0.18134 -1.99467,0.272 -3.536,0.18133 0,-0.18133 0.99733,-0.63467 0.99734,-0.544 1.26934,-1.45066 0.90666,-2.90134 0.90666,-10.33601 l 0.81601,-14.86934 v -17.136 l -0.45334,-5.80267 v -3.89867 q 0,-2.62934 -0.63467,-5.80267 -0.544,-2.62933 -0.90666,-2.992 -0.0907,-0.0907 -1.632,-0.90667 0.63466,-0.45333 4.896,-0.544 4.896,-0.18133 6.8,-0.72533 0,1.17866 -0.272,4.26133 -0.272,3.35467 -0.36267,4.624 0,6.70934 -0.63466,30.46402 l -0.45334,15.32267 q 0,1.632 0.36267,4.17067 0.36267,3.264 0.99733,3.44533 1.63201,0.45334 4.71467,0.45334 0.18134,0 3.62667,0 3.44534,0.0907 3.62667,0.0907 9.88267,0 12.784,-5.712 0.45334,0 0.72534,0.63467 z"
         style="font-size:90.6667px;fill:#000000"
         id="path1214" />
      <path
         d="m 382.38255,212.17979 q -1.34933,0.99733 -2.40533,3.168 -0.88,1.70133 -1.70134,3.40267 -0.0587,-0.82134 -0.41066,-2.22934 -0.76267,-1.52533 -6.98134,-1.52533 l -16.48534,0.41067 q 0.41066,-0.64534 0.76266,-3.168 0.41067,-2.52267 0.41067,-4.22401 l 0.41067,-6.92267 v -7.27467 q 0,-0.0587 -0.0587,-1.11467 -0.0587,-1.056 -0.0587,-1.17333 v -3.696 q 0,-1.584 -0.23466,-5.57334 -0.29334,-5.39733 -0.704,-5.74933 -0.82134,-0.64534 -1.81867,-0.704 -1.70133,-0.11734 -1.81867,-0.11734 0,-0.0587 0.0587,-0.176 0.0587,-0.176 0.0587,-0.23466 l 27.28001,-0.93867 q -0.82133,1.34933 -1.81867,3.696 -0.176,0.41067 -0.528,1.408 -0.0587,0 -0.23466,-0.0587 -0.11734,-0.0587 -0.176,-0.0587 0.176,-0.352 0.176,-0.704 0,-0.99734 -1.64267,-1.64267 -1.29067,-0.58667 -2.34667,-0.58667 -0.352,0 -0.46933,0.23467 -1.52534,-0.82133 -6.57067,-0.82133 -1.87734,0 -2.40534,0.23466 -0.46933,0.176 -0.528,1.70134 -0.0587,1.17333 -0.0587,2.34666 -0.11733,3.10934 -0.46933,9.26934 0,3.10934 -0.0587,3.52 1.81867,0.29334 5.16267,0.29334 5.51467,0 10.44268,-1.70134 0.23466,0.23467 0.23466,0.41067 0,0.11733 -0.82133,2.17067 -0.93867,2.288 -1.056,2.75733 -0.29333,0 -0.58667,-0.58666 -0.23467,-0.64534 -0.528,-0.88 -1.936,-1.232 -9.03467,-1.232 -0.58667,0 -3.57867,0.352 -0.29333,0.46933 -0.29333,1.11466 v 13.02401 q 0,0.0587 0.0587,0.99733 0.0587,0.88 0.0587,1.29067 0,1.11467 0.176,1.936 2.93334,0.82134 7.92001,0.82134 h 2.464 q 1.81866,0 5.22133,-0.704 3.46134,-0.76267 4.40001,-1.40801 l 0.528,0.11734 z"
         style="font-size:58.6667px;fill:#030101"
         id="path1216" />
      <path
         d="m 428.0252,203.32112 q 0,5.86667 -7.97867,9.328 -5.92534,2.58134 -11.49868,2.58134 -0.11733,0 -0.82133,0.0587 -0.64534,0 -0.76267,0 -8.74134,0 -14.02134,-6.57067 -4.69334,-5.86667 -4.69334,-13.84534 0,-7.92 5.04534,-13.61067 5.57334,-6.33601 14.84268,-6.62934 l 4.98666,-0.11733 q 2.99201,0 6.98134,0.82133 0.0587,0 7.04001,1.70134 -0.29334,0.58666 -1.99467,2.64 -1.64267,2.05333 -2.112,3.05067 -0.64534,1.34933 -0.93867,2.52266 -0.0587,0.352 -0.82133,0.88 v -0.46933 q 0,-0.0587 0.29333,-1.17333 0.29333,-1.11467 0.29333,-1.46667 0,-4.048 -5.86667,-5.86667 -3.63733,-1.17333 -7.392,-1.17333 -0.11733,0 -0.99733,0.11733 -0.82134,0.11733 -0.93867,0.11733 -0.11734,0 -0.23467,-0.0587 -0.0587,-0.0587 -0.176,-0.0587 -1.99467,0 -5.632,1.52533 -7.45067,3.10934 -7.45067,12.84801 0,9.03467 7.33333,15.60534 7.04001,6.33601 15.84001,6.33601 5.16267,0 5.16267,-4.45867 0,-2.52267 -1.17333,-4.57601 -0.58667,-1.17333 -1.99467,-2.288 -1.34933,-1.17333 -2.464,-1.52533 -0.99733,-0.0587 -2.64,-0.64534 -0.0587,-0.41066 0.46933,-0.46933 l 7.21601,-0.41067 q 2.75733,0 4.576,0.99734 2.52267,1.34933 2.52267,4.28267 z"
         style="font-size:58.6667px;fill:#030101"
         id="path1218" />
      <path
         d="m 445.39051,214.81979 q 0,0.11733 -0.23467,0.46933 h -9.152 l 1.056,-9.91467 0.23466,-9.56267 q 0,-13.20001 -0.0587,-13.14134 0,-0.528 -0.11734,-1.46667 -0.0587,-1.87733 -0.11733,-3.81333 -0.0587,-1.99467 -1.64267,-3.46134 0.58667,0 1.936,-0.0587 1.52534,0 1.40801,0 2.17066,0 3.696,-0.23466 1.584,-0.29334 1.34933,-0.29334 h 0.46934 q -0.93867,7.86134 -1.17334,18.36268 l -0.11733,18.77334 q 0.11733,0.93867 0.23466,1.87734 0.11734,1.17333 0.64534,1.81867 0,0.0587 1.584,0.64533 z"
         style="font-size:58.6667px;fill:#030101"
         id="path1220" />
      <path
         d="m 500.18513,191.64644 q 0,9.50401 -5.63201,16.60268 -6.27733,7.97867 -16.368,7.97867 h -1.23201 q -8.21333,0 -13.552,-4.10667 -6.27734,-4.752 -7.56801,-14.49067 -0.176,-1.232 0,-2.64 1.34934,-11.26401 8.27201,-16.83735 5.984,-4.752 15.37067,-4.752 9.15201,0 14.90134,5.104 5.80801,5.10401 5.80801,13.14134 z m -5.74934,7.09867 q 0,-8.56533 -5.39734,-15.54667 -6.10133,-7.68534 -15.37067,-7.68534 -6.10134,0 -9.68001,4.16534 -3.40266,3.872 -3.40266,9.73867 0,6.688 3.57866,12.20267 3.75467,5.86667 10.97068,9.44534 4.51733,2.22934 7.50933,2.22934 h 1.17334 q 4.16533,0 7.27467,-3.10934 3.22667,-3.344 3.28533,-8.272 0,-1.46667 0.0587,-2.40534 0,-0.88 0,-0.76267 z"
         style="font-size:58.6667px;fill:#030101"
         id="path1222" />
    </g>
    <g
       id="g5284"
       transform="rotate(11.602187,77.002599,17.885402)">
      <path
         id="path3032"
         style="fill:#c53232;fill-opacity:1;stroke:#000000;stroke-width:1;stroke-linecap:round;stroke-opacity:1"
         d="m 72.95472,27.837577 a 16.102932,15.143642 0 0 0 -14.320573,8.239291 l 6.52725,3.006535 a 8.8306265,8.2915182 0 0 1 7.793323,-4.393531 8.8306265,8.2915182 0 0 1 8.830469,8.291484 8.8306265,8.2915182 0 0 1 -0.0016,0.02791 h 7.272941 a 16.102932,15.143642 0 0 0 0.001,-0.02791 16.102932,15.143642 0 0 0 -16.10281,-15.143779 z" />
      <path
         id="path2093"
         style="fill:url(#linearGradient4551);fill-opacity:1;stroke:#000000;stroke-width:1;stroke-linecap:round;stroke-opacity:1"
         d="m 73.161943,36.907308 c -4.014732,1.3e-5 -7.269311,3.254592 -7.269324,7.269324 0.0073,3.275634 0.0011,0.06994 0.0016,2.911837 l 6.280954,-0.0055 c 0,0 -0.08643,-2.398488 1.799606,-2.398488 0.868256,0 1.799605,0.651769 1.799605,2.392988 v 4.576658 c 0,0.953066 1.089562,2.08465 2.06876,2.08465 h 5.708028 c -0.716047,0 -3.118504,-2.200011 -3.118789,-3.139572 -4.83e-4,-1.593598 -0.001,-4.82912 -0.001,-6.422635 -1.3e-5,-4.014731 -3.254592,-7.269311 -7.269323,-7.269324 z"
         sodipodi:nodetypes="ccccsscccsccc" />
      <path
         id="rect2977"
         style="fill:url(#linearGradient4553);fill-opacity:1;stroke:#000000;stroke-linecap:round"
         d="m 69.848224,47.122974 h 2.353234 v 1.460816 c 4.330919,0.527443 -0.646581,7.180223 -5.294105,8.425523 0,0 -1.694371,0.290389 -1.923804,-0.308431 -0.24952,-0.651247 1.172179,-0.755427 2.400371,-1.866407 1.669772,-1.510418 -1.052628,-2.439586 0.478922,-4.010436 1.282538,-1.31545 1.943628,0.477102 1.943628,-0.310808 0,-1.871319 0.04175,-1.822695 0.04175,-3.390257 z"
         sodipodi:nodetypes="ccccssscc" />
    </g>
  </g>
</svg>
